<svg xmlns="http://www.w3.org/2000/svg" viewBox="0 0 600 280" fill="none">
  <defs>
    <pattern id="scr" x="227" y="57" width="14" height="14" patternUnits="userSpaceOnUse">
      <path d="M 14 0 L 0 0 0 14" fill="none" stroke="#444" stroke-width="0.4"/>
    </pattern>
  </defs>

  <!-- BACKGROUND -->
  <rect width="600" height="280" fill="#050505"/>

  <!-- ══════ CABLES — far left ══════ -->
  <path d="M 248,45 C 218,18 148,2 48,-2"          stroke="#c8c8c8" stroke-width="2.5" stroke-linecap="round"/>
  <path d="M 244,45 C 206,12 122,-8 14,4"           stroke="#b0b0b0" stroke-width="1.8" stroke-linecap="round"/>
  <path d="M 240,45 C 194,6 100,-12 -14,8"          stroke="#c0c0c0" stroke-width="1.2" stroke-linecap="round"/>
  <path d="M 237,45 C 190,16 88,18 -34,32"          stroke="#a0a0a0" stroke-width="1.5" stroke-linecap="round"/>
  <path d="M 234,45 C 186,28 82,38 -44,58"          stroke="#b8b8b8" stroke-width="1.0" stroke-linecap="round"/>

  <!-- ══════ CABLES — mid-left (S-curves) ══════ -->
  <path d="M 252,45 C 232,20 194,6 145,-2 C 106,-8 66,-6 26,4"   stroke="#d0d0d0" stroke-width="2.0" stroke-linecap="round"/>
  <path d="M 256,45 C 240,22 212,10 172,2 C 138,-4 102,-2 68,8"  stroke="#c0c0c0" stroke-width="1.4" stroke-linecap="round"/>
  <path d="M 260,45 C 246,26 224,14 196,6 C 168,-2 136,0 104,10" stroke="#d8d8d8" stroke-width="1.0" stroke-linecap="round"/>
  <path d="M 264,45 C 252,28 234,18 210,10 C 186,2 156,4 124,16" stroke="#c8c8c8" stroke-width="1.8" stroke-linecap="round"/>

  <!-- ══════ CABLES — center ══════ -->
  <path d="M 272,45 C 268,26 260,8 253,-2"   stroke="#e0e0e0" stroke-width="1.2" stroke-linecap="round"/>
  <path d="M 281,45 C 279,26 274,8 270,-2"   stroke="#d0d0d0" stroke-width="1.8" stroke-linecap="round"/>
  <path d="M 291,45 C 290,22 289,6 289,-2"   stroke="#e0e0e0" stroke-width="2.0" stroke-linecap="round"/>
  <path d="M 300,45 C 300,20 300,4 300,-2"   stroke="#f0f0f0" stroke-width="2.5" stroke-linecap="round"/>
  <path d="M 309,45 C 310,22 311,6 311,-2"   stroke="#e0e0e0" stroke-width="2.0" stroke-linecap="round"/>
  <path d="M 319,45 C 321,26 326,8 330,-2"   stroke="#d0d0d0" stroke-width="1.8" stroke-linecap="round"/>
  <path d="M 328,45 C 332,26 340,8 347,-2"   stroke="#e0e0e0" stroke-width="1.2" stroke-linecap="round"/>

  <!-- ══════ CABLES — mid-right (S-curves) ══════ -->
  <path d="M 336,45 C 348,28 366,18 390,10 C 414,2 444,4 476,16" stroke="#c8c8c8" stroke-width="1.8" stroke-linecap="round"/>
  <path d="M 340,45 C 354,26 376,14 404,6 C 432,-2 464,0 496,10" stroke="#d8d8d8" stroke-width="1.0" stroke-linecap="round"/>
  <path d="M 344,45 C 360,22 388,10 428,2 C 462,-4 498,-2 532,8" stroke="#c0c0c0" stroke-width="1.4" stroke-linecap="round"/>
  <path d="M 348,45 C 368,20 406,6 455,-2 C 494,-8 534,-6 574,4" stroke="#d0d0d0" stroke-width="2.0" stroke-linecap="round"/>

  <!-- ══════ CABLES — far right ══════ -->
  <path d="M 352,45 C 382,28 452,18 546,18"         stroke="#b8b8b8" stroke-width="1.0" stroke-linecap="round"/>
  <path d="M 356,45 C 394,12 478,-8 586,4"          stroke="#c0c0c0" stroke-width="1.5" stroke-linecap="round"/>
  <path d="M 360,45 C 406,6 500,-12 614,8"          stroke="#c8c8c8" stroke-width="1.2" stroke-linecap="round"/>
  <path d="M 363,45 C 412,16 512,18 634,32"         stroke="#a0a0a0" stroke-width="1.5" stroke-linecap="round"/>
  <path d="M 366,45 C 418,28 518,38 644,58"         stroke="#b8b8b8" stroke-width="1.0" stroke-linecap="round"/>
  <path d="M 369,45 C 424,18 524,-2 644,12"         stroke="#c8c8c8" stroke-width="2.5" stroke-linecap="round"/>

  <!-- ══════ CABLES — side exits from monitor flanks ══════ -->
  <path d="M 215,88  C 168,80 118,76 56,70"   stroke="#888" stroke-width="1.2" stroke-linecap="round"/>
  <path d="M 215,108 C 158,106 98,112 36,122"  stroke="#777" stroke-width="1.0" stroke-linecap="round"/>
  <path d="M 385,88  C 432,80 482,76 544,70"  stroke="#888" stroke-width="1.2" stroke-linecap="round"/>
  <path d="M 385,108 C 442,106 502,112 564,122" stroke="#777" stroke-width="1.0" stroke-linecap="round"/>

  <!-- ══════ MONITOR ══════ -->
  <!-- Outer casing -->
  <rect x="213" y="43" width="174" height="134" rx="9" fill="#101010" stroke="#d0d0d0" stroke-width="2.5"/>
  <!-- Top-edge crease -->
  <line x1="225" y1="43" x2="375" y2="43" stroke="#e8e8e8" stroke-width="0.7" opacity="0.35"/>

  <!-- Screen bezel -->
  <rect x="221" y="51" width="158" height="116" rx="4" fill="#060606" stroke="#a0a0a0" stroke-width="1.5"/>

  <!-- Screen surface + grid -->
  <rect x="227" y="57" width="146" height="102" rx="2" fill="#080808"/>
  <rect x="227" y="57" width="146" height="102" fill="url(#scr)" opacity="0.9"/>

  <!-- Test circle (center 300, 108) r=36 -->
  <circle cx="300" cy="108" r="36" stroke="#c0c0c0" stroke-width="1.5" fill="none"/>
  <circle cx="300" cy="108" r="18" stroke="#707070" stroke-width="0.8" fill="none"/>

  <!-- Crosshairs -->
  <line x1="227" y1="108" x2="373" y2="108" stroke="#909090" stroke-width="0.9"/>
  <line x1="300" y1="57"  x2="300" y2="159" stroke="#909090" stroke-width="0.9"/>

  <!-- Tick marks at circle quarters -->
  <line x1="300" y1="72" x2="300" y2="81"   stroke="#808080" stroke-width="0.9"/>
  <line x1="300" y1="135" x2="300" y2="144" stroke="#808080" stroke-width="0.9"/>
  <line x1="264" y1="108" x2="273" y2="108" stroke="#808080" stroke-width="0.9"/>
  <line x1="327" y1="108" x2="336" y2="108" stroke="#808080" stroke-width="0.9"/>

  <!-- 45° diagonal ticks -->
  <line x1="275" y1="83"  x2="282" y2="90"  stroke="#606060" stroke-width="0.7"/>
  <line x1="325" y1="83"  x2="318" y2="90"  stroke="#606060" stroke-width="0.7"/>
  <line x1="275" y1="133" x2="282" y2="126" stroke="#606060" stroke-width="0.7"/>
  <line x1="325" y1="133" x2="318" y2="126" stroke="#606060" stroke-width="0.7"/>

  <!-- Bottom test bars -->
  <rect x="227" y="151" width="37"  height="8" fill="#141414" stroke="#505050" stroke-width="0.5"/>
  <rect x="264" y="151" width="36"  height="8" fill="#080808" stroke="#505050" stroke-width="0.5"/>
  <rect x="300" y="151" width="37"  height="8" fill="#141414" stroke="#505050" stroke-width="0.5"/>
  <rect x="337" y="151" width="36"  height="8" fill="#080808" stroke="#505050" stroke-width="0.5"/>

  <!-- Casing bottom strip -->
  <rect x="221" y="163" width="158" height="6" rx="1" fill="#0c0c0c" stroke="#787878" stroke-width="0.8"/>

  <!-- Indicator dots -->
  <circle cx="356" cy="166" r="3" fill="none" stroke="#707070" stroke-width="1.0"/>
  <circle cx="365" cy="166" r="3" fill="none" stroke="#707070" stroke-width="1.0"/>
  <circle cx="374" cy="166" r="3" fill="none" stroke="#707070" stroke-width="1.0"/>

  <!-- ══════ NECK ══════ -->
  <path d="M 278,169 L 274,192 L 326,192 L 322,169 Z" fill="#0a0a0a" stroke="#b8b8b8" stroke-width="1.5"/>
  <line x1="284" y1="171" x2="282" y2="192" stroke="#555" stroke-width="0.9"/>
  <line x1="291" y1="170" x2="290" y2="192" stroke="#555" stroke-width="0.9"/>
  <line x1="300" y1="169" x2="300" y2="192" stroke="#666" stroke-width="1.0"/>
  <line x1="309" y1="170" x2="310" y2="192" stroke="#555" stroke-width="0.9"/>
  <line x1="316" y1="171" x2="318" y2="192" stroke="#555" stroke-width="0.9"/>

  <!-- ══════ BODY ══════ -->
  <!-- Main bust silhouette -->
  <path d="M 56,280 C 52,244 68,212 98,194 C 130,174 174,180 200,180 L 300,180 L 400,180 C 426,180 470,174 502,194 C 532,212 548,244 544,280 Z"
        fill="#0c0c0c" stroke="#c0c0c0" stroke-width="2"/>

  <!-- Left lapel -->
  <path d="M 278,192 C 258,203 230,218 202,238 L 194,272 L 232,240 L 272,208 Z"
        fill="#080808" stroke="#a8a8a8" stroke-width="1.5"/>

  <!-- Right lapel -->
  <path d="M 322,192 C 342,203 370,218 398,238 L 406,272 L 368,240 L 328,208 Z"
        fill="#080808" stroke="#a8a8a8" stroke-width="1.5"/>

  <!-- Center seam -->
  <line x1="300" y1="192" x2="300" y2="279" stroke="#888" stroke-width="1.0"/>

  <!-- Circuit — horizontal traces -->
  <line x1="228" y1="210" x2="372" y2="210" stroke="#4a4a4a" stroke-width="0.9"/>
  <line x1="214" y1="226" x2="386" y2="226" stroke="#4a4a4a" stroke-width="0.9"/>
  <line x1="202" y1="242" x2="398" y2="242" stroke="#4a4a4a" stroke-width="0.9"/>
  <line x1="192" y1="258" x2="408" y2="258" stroke="#4a4a4a" stroke-width="0.9"/>
  <line x1="184" y1="274" x2="416" y2="274" stroke="#4a4a4a" stroke-width="0.9"/>

  <!-- Circuit — vertical traces -->
  <line x1="258" y1="210" x2="258" y2="242" stroke="#4a4a4a" stroke-width="0.9"/>
  <line x1="273" y1="210" x2="273" y2="258" stroke="#4a4a4a" stroke-width="0.9"/>
  <line x1="287" y1="210" x2="287" y2="274" stroke="#4a4a4a" stroke-width="0.9"/>
  <line x1="313" y1="210" x2="313" y2="274" stroke="#4a4a4a" stroke-width="0.9"/>
  <line x1="327" y1="210" x2="327" y2="258" stroke="#4a4a4a" stroke-width="0.9"/>
  <line x1="342" y1="210" x2="342" y2="242" stroke="#4a4a4a" stroke-width="0.9"/>

  <!-- Solder dots -->
  <circle cx="258" cy="226" r="2" fill="#0c0c0c" stroke="#4a4a4a" stroke-width="0.9"/>
  <circle cx="273" cy="226" r="2" fill="#0c0c0c" stroke="#4a4a4a" stroke-width="0.9"/>
  <circle cx="287" cy="226" r="2" fill="#0c0c0c" stroke="#4a4a4a" stroke-width="0.9"/>
  <circle cx="313" cy="226" r="2" fill="#0c0c0c" stroke="#4a4a4a" stroke-width="0.9"/>
  <circle cx="327" cy="226" r="2" fill="#0c0c0c" stroke="#4a4a4a" stroke-width="0.9"/>
  <circle cx="342" cy="226" r="2" fill="#0c0c0c" stroke="#4a4a4a" stroke-width="0.9"/>
  <circle cx="258" cy="242" r="2" fill="#0c0c0c" stroke="#4a4a4a" stroke-width="0.9"/>
  <circle cx="273" cy="242" r="2" fill="#0c0c0c" stroke="#4a4a4a" stroke-width="0.9"/>
  <circle cx="287" cy="242" r="2" fill="#0c0c0c" stroke="#4a4a4a" stroke-width="0.9"/>
  <circle cx="313" cy="242" r="2" fill="#0c0c0c" stroke="#4a4a4a" stroke-width="0.9"/>
  <circle cx="327" cy="242" r="2" fill="#0c0c0c" stroke="#4a4a4a" stroke-width="0.9"/>
  <circle cx="342" cy="242" r="2" fill="#0c0c0c" stroke="#4a4a4a" stroke-width="0.9"/>
  <circle cx="273" cy="258" r="2" fill="#0c0c0c" stroke="#4a4a4a" stroke-width="0.9"/>
  <circle cx="287" cy="258" r="2" fill="#0c0c0c" stroke="#4a4a4a" stroke-width="0.9"/>
  <circle cx="313" cy="258" r="2" fill="#0c0c0c" stroke="#4a4a4a" stroke-width="0.9"/>
  <circle cx="327" cy="258" r="2" fill="#0c0c0c" stroke="#4a4a4a" stroke-width="0.9"/>
  <circle cx="287" cy="274" r="2" fill="#0c0c0c" stroke="#4a4a4a" stroke-width="0.9"/>
  <circle cx="313" cy="274" r="2" fill="#0c0c0c" stroke="#4a4a4a" stroke-width="0.9"/>

  <!-- Shoulder plate — left -->
  <path d="M 64,222 C 66,208 88,200 110,204 C 126,207 137,218 135,232 C 133,246 114,252 94,248 C 76,244 62,236 64,222 Z"
        fill="#080808" stroke="#989898" stroke-width="1.5"/>
  <line x1="72" y1="222" x2="126" y2="222" stroke="#484848" stroke-width="0.7"/>
  <line x1="69" y1="232" x2="128" y2="232" stroke="#484848" stroke-width="0.7"/>
  <line x1="70" y1="242" x2="124" y2="242" stroke="#484848" stroke-width="0.7"/>

  <!-- Shoulder plate — right -->
  <path d="M 536,222 C 534,208 512,200 490,204 C 474,207 463,218 465,232 C 467,246 486,252 506,248 C 524,244 538,236 536,222 Z"
        fill="#080808" stroke="#989898" stroke-width="1.5"/>
  <line x1="474" y1="222" x2="528" y2="222" stroke="#484848" stroke-width="0.7"/>
  <line x1="472" y1="232" x2="531" y2="232" stroke="#484848" stroke-width="0.7"/>
  <line x1="476" y1="242" x2="530" y2="242" stroke="#484848" stroke-width="0.7"/>
</svg>
